<?xml version="1.0" standalone="no"?><!DOCTYPE svg PUBLIC "-//W3C//DTD SVG 1.1//EN" "http://www.w3.org/Graphics/SVG/1.1/DTD/svg11.dtd"><svg t="1662103842020" class="icon" viewBox="0 0 1024 1024" version="1.1" xmlns="http://www.w3.org/2000/svg" p-id="9031" xmlns:xlink="http://www.w3.org/1999/xlink" width="200" height="200"><path d="M226.133333 356.266667l27.733334-27.733334 19.2-19.2 19.2 19.2 132.266666 132.266667h36.266667v-36.266667l-132.266667-132.266666-19.2-19.2 19.2-19.2 27.733334-27.733334h-130.133334v130.133334z" p-id="9032" fill="#f4ea2a"></path><path d="M460.8 386.133333v-160h-66.133333l-46.933334 46.933334c-2.133333 0 113.066667 113.066667 113.066667 113.066666z m-234.666667 6.4v66.133334h160l-113.066666-113.066667-46.933334 46.933333z m488.533334-119.466666l-151.466667 151.466666v36.266667h36.266667l132.266666-132.266667 19.2-19.2 46.933334 46.933334v-130.133334h-130.133334l27.733334 27.733334 19.2 19.2z" p-id="9033" fill="#f4ea2a"></path><path d="M637.866667 460.8h160v-66.133333l-46.933334-46.933334c0-2.133333-113.066667 113.066667-113.066666 113.066667zM198.4 537.6h213.333333l25.6-25.6-25.6-25.6h-213.333333v-66.133333L106.666667 512l91.733333 91.733333v-66.133333zM420.266667 198.4h66.133333v213.333333l25.6 25.6 25.6-25.6v-213.333333h66.133333L512 106.666667l-91.733333 91.733333z" p-id="9034" fill="#f4ea2a"></path><path d="M563.2 386.133333l113.066667-113.066666-46.933334-46.933334h-66.133333v160z m0 251.733334v160h66.133333l46.933334-46.933334-113.066667-113.066666z m74.666667-74.666667l113.066666 113.066667 46.933334-46.933334v-66.133333h-160z" p-id="9035" fill="#f4ea2a"></path><path d="M797.866667 667.733333l-46.933334 46.933334-19.2-19.2-132.266666-132.266667h-36.266667v36.266667l132.266667 132.266666 19.2 19.2-19.2 19.2-27.733334 27.733334h130.133334v-130.133334z m-524.8 10.666667l113.066666-113.066667h-160v66.133334l46.933334 46.933333z m552.533333-192h-213.333333L586.666667 512l25.6 25.6h213.333333v66.133333L917.333333 512l-91.733333-91.733333v66.133333z" p-id="9036" fill="#f4ea2a"></path><path d="M309.333333 750.933333l19.2-19.2 132.266667-132.266666v-36.266667h-36.266667l-132.266666 132.266667-19.2 19.2-46.933334-46.933334v130.133334h130.133334l-27.733334-27.733334-19.2-19.2z m294.4 74.666667h-66.133333v-213.333333L512 586.666667l-25.6 25.6v213.333333h-66.133333L512 917.333333l91.733333-91.733333z" p-id="9037" fill="#f4ea2a"></path><path d="M460.8 637.866667l-113.066667 113.066666 46.933334 46.933334h66.133333v-160z" p-id="9038" fill="#f4ea2a"></path></svg>