<?xml version="1.0" standalone="no"?><!DOCTYPE svg PUBLIC "-//W3C//DTD SVG 1.1//EN" "http://www.w3.org/Graphics/SVG/1.1/DTD/svg11.dtd"><svg t="1662102602739" class="icon" viewBox="0 0 1026 1024" version="1.1" xmlns="http://www.w3.org/2000/svg" p-id="8291" xmlns:xlink="http://www.w3.org/1999/xlink" width="200.390625" height="200"><path d="M1013.84669 468.07203l5.728392 0c0 0 0 2.864196 0 5.728392 0 2.864196-2.864196 11.456785-2.864196 14.320981l0 2.864196c-2.864196 2.864196-2.864196 8.592589-5.728392 11.456785-8.592589 8.592589-22.91357 14.320981-42.962943 22.91357-31.506158 14.320981-83.06169 22.91357-131.753026 22.91357-17.185177 0-34.370355-2.864196-48.691336-2.864196-45.82714-5.728392-77.333298-8.592589-85.925887 31.506158-8.592589 51.555532 40.098747 114.567849 40.098747 114.567849l0 2.864196-2.864196 0c0 0-77.333298-34.370355-80.197494-37.234551l-2.864196-2.864196-2.864196-2.864196c-5.728392-5.728392-17.185177-17.185177-40.098747-45.82714-45.82714-54.419728-100.246868-60.148121-140.345615-48.691336-11.456785 2.864196-22.91357 8.592589-31.506158 17.185177-22.91357 20.049374-20.049374 63.012317-17.185177 80.197494 2.864196 17.185177 2.864196 20.049374 2.864196 20.049374l0 2.864196-2.864196 0 0 0-63.012317-31.506158-2.864196-11.456785c-2.864196-5.728392-2.864196-14.320981-5.728392-22.91357-22.91357-60.148121-74.469102-103.111064-128.88883-114.567849-37.234551-5.728392-105.97526-8.592589-143.209811 63.012317-14.320981 28.641962-14.320981 65.876513 2.864196 97.382672 17.185177 31.506158 48.691336 54.419728 83.06169 57.283924 34.370355 2.864196 63.012317-5.728392 77.333298-22.91357 14.320981-20.049374 17.185177-45.82714 8.592589-68.740709-11.456785-22.91357-28.641962-37.234551-54.419728-37.234551-17.185177-2.864196-31.506158 5.728392-37.234551 14.320981-2.864196 2.864196-2.864196 5.728392-2.864196 14.320981l0 0c0 17.185177 17.185177 22.91357 20.049374 22.91357 0 0 5.728392 0 11.456785-2.864196l2.864196 0 2.864196 0 2.864196 0c11.456785-2.864196 22.91357 5.728392 25.777766 17.185177 0 2.864196 0 2.864196 0 5.728392 0 8.592589-2.864196 14.320981-11.456785 20.049374l0 0 0 0 0 0c-2.864196 2.864196-5.728392 2.864196-8.592589 5.728392-8.592589 2.864196-17.185177 5.728392-25.777766 5.728392-28.641962 0-65.876513-22.91357-68.740709-68.740709 0-25.777766 11.456785-48.691336 34.370355-63.012317 25.777766-17.185177 71.604906-22.91357 111.703653 2.864196 51.555532 31.506158 63.012317 91.654279 51.555532 134.617223-20.049374 60.148121-74.469102 91.654279-146.074007 85.925887-51.555532-5.728392-97.382672-31.506158-126.024634-71.604906-11.456785-17.185177-22.91357-37.234551-25.777766-57.283924-11.456785-45.82714 0-94.518475 8.592589-114.567849 28.641962-68.740709 80.197494-126.024634 157.530792-174.71597l5.728392-2.864196c163.259185-100.246868 277.827034-94.518475 360.888724-91.654279 100.246868 2.864196 206.222128 37.234551 220.543109 42.962943 0-2.864196 0-31.506158 0-31.506158l0 0 0 0c5.728392 0 148.938204 22.91357 209.086324 57.283924 8.592589 5.728392 11.456785 8.592589 14.320981 14.320981 17.185177 17.185177 37.234551 88.790083 40.098747 103.111064l0 2.864196c0 0-2.864196 2.864196-5.728392 2.864196-14.320981 8.592589-45.82714 31.506158-88.790083 28.641962-37.234551-2.864196-85.925887-25.777766-146.074007-63.012317 2.864196 5.728392 14.320981 34.370355 17.185177 40.098747l0 0c8.592589 5.728392 91.654279 45.82714 131.753026 45.82714C965.155354 493.849796 999.525709 476.664619 1013.84669 468.07203L1013.84669 468.07203zM976.612139 385.010339c0-34.370355-25.777766-63.012317-60.148121-63.012317-17.185177 0-31.506158 5.728392-42.962943 17.185177-11.456785 11.456785-20.049374 25.777766-20.049374 42.962943 0 34.370355 25.777766 63.012317 60.148121 63.012317 17.185177 0 31.506158-5.728392 42.962943-17.185177C968.01955 416.516498 976.612139 402.195517 976.612139 385.010339L976.612139 385.010339zM919.328214 339.1832c22.91357 0 42.962943 20.049374 42.962943 45.82714 0 11.456785-5.728392 22.91357-14.320981 31.506158-8.592589 8.592589-20.049374 11.456785-31.506158 11.456785-22.91357 0-42.962943-20.049374-42.962943-45.82714 0-11.456785 5.728392-22.91357 14.320981-31.506158C896.414645 344.911592 907.87143 339.1832 919.328214 339.1832L919.328214 339.1832zM945.10598 373.553555c0-5.728392-8.592589-11.456785-20.049374-11.456785-11.456785 0-20.049374 5.728392-20.049374 11.456785 0 5.728392 8.592589 11.456785 20.049374 11.456785C936.513392 387.874536 945.10598 382.146143 945.10598 373.553555z" p-id="8292" fill="#0fd03e"></path></svg>